<svg xmlns="http://www.w3.org/2000/svg" width="512" height="408">
  <path
    fill="#0"
    d="M56.481 53.32C55.515 25.58 77.128 0 106.342 0h299.353c29.214 0 50.827 25.58 49.861 53.32-.928 26.647.277 61.165 8.964 89.31 8.715 28.232 23.411 46.077 47.48 48.37v26c-24.069 2.293-38.765 20.138-47.48 48.37-8.687 28.145-9.892 62.663-8.964 89.311.966 27.739-20.647 53.319-49.861 53.319H106.342c-29.214 0-50.827-25.58-49.86-53.319.927-26.648-.278-61.166-8.966-89.311C38.802 237.138 24.07 219.293 0 217v-26c24.069-2.293 38.802-20.138 47.516-48.37 8.688-28.145 9.893-62.663 8.965-89.31z"
  />
  <path
    fill="#fff"
    stroke="#fff"
    d="m 292.32812,254.78125 q 12.5,9.0625 18.75,20.625 6.25,11.5625 6.25,25.46875 0,22.5 -19.375,36.09375 -19.375,13.75 -45.46875,13.75 -23.75,0 -40.3125,-10.9375 -16.5625,-10.9375 -16.5625,-26.875 0,-9.21875 6.09375,-15 6.09375,-5.625 13.75,-5.625 8.28125,0 12.96875,4.6875 4.6875,4.84375 7.65625,15.46875 3.90625,13.28125 9.84375,17.03125 5.9375,3.90625 13.75,3.90625 9.375,0 16.09375,-5.3125 6.71875,-5.3125 6.71875,-12.96875 0,-6.25 -4.375,-13.4375 -4.53125,-7.03125 -28.75,-23.4375 -27.96875,-18.75 -40.15625,-29.0625 -12.1875,-10.46875 -18.75,-22.8125 -6.5625,-12.5 -6.5625,-26.5625 0,-13.28125 5.78125,-23.28125 5.9375,-10 13.75,-14.6875 7.8125,-4.84375 18.4375,-7.34375 -13.28125,-9.6875 -20,-21.09375 -6.71875,-11.40625 -6.71875,-24.6875 0,-22.8125 19.21875,-37.03125 19.21875,-14.375 46.71875,-14.375 23.125,0 40,10.78125 16.875,10.78125 16.875,26.09375 0,9.0625 -6.40625,14.84375 -6.40625,5.78125 -14.6875,5.78125 -8.125,0 -12.1875,-4.21875 -4.0625,-4.375 -7.96875,-15.9375 -3.59375,-10.9375 -8.90625,-15.46875 -5.3125,-4.53125 -14.84375,-4.53125 -9.84375,0 -16.875,5.46875 -6.875,5.46875 -6.875,13.125 0,8.75 6.71875,15.78125 6.5625,7.03125 32.03125,23.28125 23.90625,15.3125 35.3125,24.6875 11.5625,9.21875 18.125,22.03125 6.71875,12.8125 6.71875,27.65625 0,18.90625 -8.90625,30.9375 -8.90625,12.03125 -26.875,17.1875 z m 5,-30 q 0,-15.78125 -26.71875,-36.5625 -26.5625,-20.9375 -39.375,-20.9375 -5.9375,0 -11.40625,4.6875 -5.3125,4.53125 -5.3125,10.78125 0,14.84375 27.03125,36.09375 27.1875,21.25 39.6875,21.25 6.5625,0 11.25,-4.53125 4.84375,-4.53125 4.84375,-10.78125 z"
  />
</svg>
